<svg width="1027" height="363" viewBox="0 0 1027 363" fill="none" xmlns="http://www.w3.org/2000/svg">
<path fill-rule="evenodd" clip-rule="evenodd" d="M5 2.5C5 4.5 4.5 5 2.5 5H0V55.375C0 83.081 0.281 107.156 0.625 108.875C1.058 111.042 1.825 112 3.125 112C4.542 112 5 112.733 5 115C5 117.533 4.611 118 2.5 118H0V229.375C0 290.631 0.281 342.156 0.625 343.875C1.049 345.993 1.833 347 3.059 347C4.288 347 4.968 347.88 5.184 349.75C5.432 351.91 6.09 352.568 8.25 352.816C10.142 353.034 11 353.708 11 354.979C11 357.385 16.891 358.441 25.036 357.496C29.988 356.921 31 356.481 31 354.902C31 353.134 31.882 353 43.5 353C55.042 353 56 353.143 56 354.869C56 356.252 56.975 356.9 59.75 357.358C61.813 357.699 92.3 357.978 127.5 357.978C162.7 357.978 193.188 357.699 195.25 357.358C198.025 356.9 199 356.252 199 354.869C199 353.15 199.945 352.999 210.75 352.989C225.746 352.975 230 352.306 230 349.963C230 348.591 231.136 348.031 235 347.5C238.933 346.959 240 346.421 240 344.978C240 343.505 241.082 343.009 245.5 342.457C250.437 341.84 251 341.525 251 339.385C251 337.508 251.532 337 253.5 337C255.5 337 256 336.5 256 334.5C256 332.5 256.5 332 258.5 332C260.5 332 261 331.5 261 329.5C261 327.5 261.5 327 263.5 327C265.5 327 266 326.5 266 324.5C266 322.5 266.5 322 268.5 322C270.833 322 271 321.667 271 317C271 312.333 271.167 312 273.5 312C275.864 312 276 311.7 276 306.5C276 301.3 276.136 301 278.5 301H281V270.5V240H278.5C276.056 240 276 239.833 276 232.5C276 225.167 275.944 225 273.5 225C271.167 225 271 224.667 271 220C271 215.333 270.833 215 268.5 215C266.167 215 266 214.667 266 210C266 205.333 265.833 205 263.5 205C261.389 205 261 204.533 261 202C261 199.505 260.599 199 258.613 199C255.676 199 254.961 195.691 255.753 185.75C256.252 179.48 256.457 179 258.645 179C260.472 179 261 178.455 261 176.57C261 174.81 261.621 174.051 263.25 173.82C265.332 173.524 265.522 172.922 265.792 165.75C266.074 158.265 266.168 158 268.542 158H271V117.5V77H268.5C266.076 77 266 76.792 266 70.125C266 60.48 265.171 57 262.875 57C261.269 57 261 56.211 261 51.5C261 46.357 260.844 46 258.594 46C256.471 46 256.108 45.422 255.514 41.102C254.843 36.222 254.824 36.201 250.473 35.548C246.22 34.91 246.09 34.78 245.452 30.527C244.799 26.176 244.778 26.157 239.898 25.486C235.578 24.892 235 24.529 235 22.406C235 20.506 234.474 20 232.5 20C230.725 20 230 19.458 230 18.131C230 16.132 226.061 15.033 218.82 15.011C215.768 15.002 215.084 14.615 214.82 12.75C214.541 10.79 213.824 10.461 209.25 10.198C204.947 9.95 204 9.567 204 8.073C204 5.834 200.436 5 190.875 5C184.208 5 184 4.924 184 2.5V0H94.5H5V2.5ZM424 2.5V5H414H404V7.5C404 9.5 403.5 10 401.5 10C399.5 10 399 10.5 399 12.5C399 15.301 397.106 15.106 427 15.384C438.977 15.495 439.513 15.59 439.806 17.645C440.047 19.335 441.028 19.927 444.44 20.439C449.628 21.217 450 22.301 450 36.625C450 45.861 449.964 46 447.594 46C445.471 46 445.108 46.578 444.514 50.898C443.843 55.778 443.824 55.799 439.473 56.452C435.215 57.09 435.09 57.216 434.448 61.498C433.927 64.97 433.341 65.952 431.645 66.194C429.81 66.456 429.456 67.258 429.198 71.75C428.92 76.571 428.696 77 426.448 77C424.177 77 424 77.362 424 82V87H419H414V92C414 96.667 413.833 97 411.5 97H409V115V133H411.5C413.5 133 414 133.5 414 135.5C414 137.944 413.833 138 406.5 138C399.167 138 399 137.944 399 135.5C399 133.5 398.5 133 396.5 133C394.518 133 394 132.496 394 130.566C394 128.655 393.41 128.065 391.25 127.816C389.307 127.593 388.409 126.858 388.189 125.311C387.994 123.948 387.052 123.006 385.689 122.811C384.304 122.614 383.383 121.674 383.18 120.25C382.949 118.621 382.19 118 380.43 118C378.523 118 378 117.477 378 115.57C378 113.81 377.379 113.051 375.75 112.82C374.139 112.591 373.41 111.719 373.184 109.75C372.935 107.59 372.345 107 370.434 107C368.504 107 368 106.482 368 104.5C368 102.5 367.5 102 365.5 102C363.5 102 363 101.5 363 99.5C363 97.508 362.498 97 360.53 97H358.06L357.78 84.25C357.508 71.887 357.432 71.49 355.25 71.18C353.031 70.865 353 70.653 353 55.93V41H348C343.333 41 343 41.167 343 43.5C343 45.474 342.494 46 340.594 46C338.465 46 338.108 46.576 337.5 51C336.892 55.424 336.535 56 334.406 56C332.506 56 332 56.526 332 58.5C332 60.5 331.5 61 329.5 61C327.167 61 327 61.333 327 66C327 70.667 326.833 71 324.5 71C322.389 71 322 71.467 322 74C322 76.533 321.611 77 319.5 77C317.025 77 317 77.086 316.989 85.75C316.974 97.892 316.194 102 313.904 102C312.263 102 312.04 103.079 311.785 112.25C311.513 122.018 311.394 122.515 309.25 122.82C306.219 123.25 305.99 128 309 128C310.467 128 311 128.667 311 130.5C311 132.333 310.467 133 309 133C307.179 133 307 133.667 307 140.43C307 147.375 307.147 147.882 309.25 148.18C311.394 148.485 311.513 148.982 311.785 158.75C312.04 167.933 312.262 169 313.91 169C315.984 169 317 172.492 317 179.625C317 183.625 317.214 184 319.5 184C321.833 184 322 184.333 322 189C322 193.667 322.167 194 324.5 194C326.833 194 327 194.333 327 199C327 203.667 327.167 204 329.5 204C331.611 204 332 204.467 332 207C332 209.495 332.402 210 334.386 210C336.443 210 336.865 210.613 337.438 214.437C337.972 217.994 338.54 218.937 340.302 219.187C341.858 219.409 342.592 220.303 342.816 222.25C343.065 224.41 343.655 225 345.566 225C347.496 225 348 225.518 348 227.5C348 229.5 348.5 230 350.5 230C352.5 230 353 230.5 353 232.5C353 234.796 353.367 235 357.5 235C361.633 235 362 235.204 362 237.5C362 239.611 362.467 240 365 240C367.49 240 368 240.403 368 242.371C368 244.461 368.592 244.821 373 245.406C376.96 245.931 378 246.454 378 247.919C378 249.412 379.063 249.902 383.5 250.457C387.918 251.009 389 251.505 389 252.978C389 254.421 390.067 254.959 394 255.5C397.845 256.029 399 256.594 399 257.947C399 259.417 400.26 259.813 406.651 260.353C410.859 260.709 417.609 261 421.651 261C428.333 261 429 261.181 429 263C429 264.467 429.667 265 431.5 265C433.305 265 434 264.462 434 263.066C434 261.7 434.807 261.04 436.75 260.816C438.91 260.568 439.568 259.91 439.816 257.75C440.04 255.807 440.7 255 442.066 255C443.462 255 444 254.305 444 252.5C444 250.667 443.467 250 442 250C440.267 250 440 249.333 440 245C440 240.667 440.267 240 442 240C443.588 240 444.001 239.331 444.007 236.75C444.011 234.962 444.298 230.498 444.644 226.83L445.274 220.159L442.387 219.83C440.328 219.595 439.412 218.885 439.194 217.355C438.953 215.663 437.972 215.073 434.547 214.559C430.593 213.966 430.149 213.609 429.575 210.551C428.558 205.127 429.912 199 432.128 199C433.757 199 434.001 198.187 434.011 192.75C434.028 183.18 434.948 179 437.037 179C438.409 179 438.969 177.864 439.5 174L440.188 169H450.094C459.108 169 460 169.169 460 170.872C460 173.398 465.82 174.281 476.667 173.401C483.886 172.815 485 172.476 485 170.862C485 169.164 485.925 169 495.5 169H506V171.5C506 173.5 506.5 174 508.5 174H511V184V194H508.5C506.056 194 506 194.167 506 201.5C506 208.833 505.944 209 503.5 209C501.042 209 501 209.133 501 217C501 224.867 500.958 225 498.5 225C496.5 225 496 225.5 496 227.5C496 229.474 495.494 230 493.594 230C491.465 230 491.108 230.576 490.5 235C489.892 239.424 489.535 240 487.406 240C485.506 240 485 240.526 485 242.5C485 244.333 484.467 245 483 245C481.548 245 481 245.667 481 247.434C481 249.345 480.41 249.935 478.25 250.184C476.307 250.407 475.409 251.142 475.189 252.689C474.994 254.052 474.052 254.994 472.689 255.189C471.304 255.386 470.383 256.326 470.18 257.75C469.873 259.913 470.153 260 477.43 260C484.333 260 485 259.824 485 258C485 256.315 485.67 255.998 489.25 255.989C496.881 255.969 501 254.909 501 252.963C501 251.594 502.13 251.032 505.942 250.508C509.988 249.952 510.939 249.436 511.192 247.664C511.451 245.845 512.257 245.451 516.25 245.195C520.539 244.92 521 244.653 521 242.445C521 240.395 521.485 240 524 240C526.533 240 527 239.611 527 237.5C527 235.5 527.5 235 529.5 235C531.5 235 532 234.5 532 232.5C532 230.5 532.5 230 534.5 230C536.5 230 537 229.5 537 227.5C537 225.5 537.5 225 539.5 225C541.5 225 542 224.5 542 222.5C542 220.5 542.5 220 544.5 220C546.5 220 547 219.5 547 217.5C547 215.5 547.5 215 549.5 215C551.611 215 552 214.533 552 212C552 209.505 552.402 209 554.386 209C556.448 209 556.865 208.388 557.448 204.5C557.964 201.059 558.551 200 559.946 200C561.406 200 561.906 198.905 562.457 194.5C563.003 190.128 563.513 189 564.941 189C566.862 189 567.968 184.942 567.989 177.816C567.999 174.538 567.697 174.098 565.25 173.816C562.543 173.505 562.495 173.379 562.208 165.75C561.917 158.039 561.929 158 564.458 158H567L567.188 143C567.291 134.75 567.403 126.762 567.438 125.25C567.485 123.155 566.977 122.426 565.302 122.187C563.54 121.937 562.972 120.994 562.438 117.437C561.865 113.613 561.443 113 559.386 113C557.402 113 557 112.495 557 110C557 107.467 556.611 107 554.5 107C552.5 107 552 106.5 552 104.5C552 102.5 551.5 102 549.5 102C547.5 102 547 101.5 547 99.5C547 97.5 546.5 97 544.5 97C542.167 97 542 96.667 542 92C542 87.333 541.833 87 539.5 87C537.5 87 537 86.5 537 84.5C537 82.537 536.491 82 534.631 82C532.67 82 532.155 81.354 531.642 78.25C530.839 73.393 530.837 66.47 531.636 60.64C532.12 57.107 532.694 56 534.042 56C535.408 56 535.969 54.858 536.5 51C537.052 46.989 537.565 46 539.094 46C540.46 46 541 45.292 541 43.5C541 41.667 540.467 41 539 41C537.548 41 537 40.333 537 38.566C537 36.655 536.41 36.065 534.25 35.816C532.307 35.593 531.409 34.858 531.189 33.311C530.994 31.948 530.052 31.006 528.689 30.811C527.334 30.619 526.383 29.675 526.192 28.336C525.939 26.564 524.988 26.048 520.942 25.492C516.577 24.892 516 24.531 516 22.406C516 20.506 515.474 20 513.5 20C511.708 20 511 19.46 511 18.094C511 16.565 510.011 16.052 506 15.5C502.136 14.969 501 14.409 501 13.037C501 11.091 496.881 10.031 489.25 10.011C485.765 10.002 485 9.662 485 8.125C485 5.456 481.552 5 461.375 5H444V2.5V0H434H424V2.5ZM621 2.5C621 4.886 620.729 5 615.072 5H609.144L608.45 10.55C607.408 18.891 608.372 40.291 609.811 40.77C610.465 40.988 611 42.254 611 43.583C611 44.912 611.45 46 612 46C612.559 46 613 48.723 613 52.168C613 60.725 614.901 71 616.483 71C617.394 71 617.967 74.018 618.477 81.5C619.096 90.578 619.43 92 620.949 92C622.416 92 622.813 93.265 623.353 99.651C623.709 103.859 624 109.454 624 112.083C624 115.865 624.389 116.989 625.857 117.455C627.847 118.086 628.978 125.226 628.993 137.25C628.999 142.197 629.261 143 630.869 143C633.197 143 633.974 147.039 633.989 159.231C634 167.706 634.073 167.98 636.5 168.589C638.998 169.216 639 169.225 639 181.608V194H641.5H644V207C644 217.889 644.244 220 645.5 220C646.433 220 647 220.944 647 222.5C647 223.875 647.396 225 647.881 225C648.365 225 648.952 229.358 649.185 234.685C649.46 240.976 650.028 244.509 650.804 244.768C651.462 244.987 652 246.254 652 247.583C652 248.912 652.45 250 653 250C653.587 250 654 253.453 654 258.36C654 271.028 654.884 276 657.136 276C658.671 276 659 276.773 659 280.375C659 287.453 660.019 291 662.053 291C663.484 291 663.982 292.083 664.465 296.25C664.8 299.137 664.955 303.75 664.81 306.5C664.664 309.25 664.648 314.988 664.773 319.25C664.973 326.071 665.224 327 666.869 327C669.062 327 669.972 331.008 669.989 340.75C669.999 346.204 670.24 347 671.886 347C673.37 347 673.925 348.013 674.484 351.75C675.304 357.223 676.108 357.964 681.25 357.985C684.257 357.997 685 358.375 685 359.893C685 360.934 685.712 362.059 686.582 362.393C688.663 363.192 762.4 363.16 767.25 362.358C770.025 361.9 771 361.252 771 359.869C771 358.559 771.723 358 773.418 358C777.147 358 779 356.968 779 354.893C779 353.852 779.675 353 780.5 353C781.433 353 782 352.056 782 350.5C782 348.5 782.5 348 784.5 348C786.941 348 787 347.826 787 340.608C787 333.558 787.115 333.188 789.5 332.589C791.688 332.04 792 331.418 792 327.606C792 320.84 793.041 317.122 795.119 316.462C796.748 315.945 797 314.823 797 308.072C797 296.209 797.924 291 800.028 291C801.538 291 801.885 289.599 802.5 281C802.894 275.5 803.617 271 804.108 271C804.599 271 805 269.912 805 268.583C805 267.254 805.487 266.004 806.082 265.806C806.713 265.596 807.399 261.178 807.728 255.223C808.212 246.431 808.532 245 810.015 245C811.861 245 812.968 240.812 812.989 233.75C812.999 230.42 813.28 230 815.5 230C817.833 230 818 230.333 818 235C818 239.667 818.167 240 820.5 240C822.942 240 823 240.171 823 247.433C823 253.83 823.262 254.948 824.881 255.462C827.156 256.184 828 259.881 828 269.125C828 273.042 828.43 276 829 276C829.55 276 830 277.125 830 278.5C830 280.056 830.567 281 831.5 281C832.733 281 833 282.776 833 290.981C833 300.793 833.042 300.972 835.5 301.589C837.924 302.198 838 302.479 838.011 310.858C838.026 322.961 838.807 327 841.131 327C842.791 327 843 327.842 843 334.531C843 340.303 843.35 342.197 844.5 342.638C845.325 342.955 846 344.066 846 345.107C846 346.148 846.42 347 846.934 347C847.447 347 848.01 348.238 848.184 349.75C848.407 351.693 849.142 352.591 850.689 352.811C852.052 353.006 852.994 353.948 853.189 355.311C853.436 357.049 854.272 357.564 857.25 357.81C860.077 358.044 861 358.563 861 359.918C861 362.527 867.77 363.001 904.897 362.993C942.652 362.984 950 362.484 950 359.922C950 358.714 950.893 358.03 952.75 357.816C954.699 357.592 955.591 356.858 955.813 355.297C955.986 354.086 956.945 352.835 957.944 352.518C960.15 351.818 961 348.023 961 338.875C961 332.827 961.225 332 962.869 332C965.193 332 965.974 327.961 965.989 315.858C966 307.479 966.076 307.198 968.5 306.589C971 305.962 971 305.96 971 293.481V281H973.5C975.989 281 976 280.958 976 271.625C976 259.494 976.699 256 979.125 256C980.822 256 981.001 255.124 981.011 246.75C981.026 234.043 981.779 230 984.131 230C985.832 230 986 229.099 986 219.969C986 211.974 986.305 209.82 987.5 209.362C988.325 209.045 989 207.972 989 206.976C989 205.981 989.425 205.017 989.943 204.833C990.462 204.65 991.203 198.762 991.59 191.75C992.2 180.67 992.516 179 993.999 179C995.404 179 995.821 177.643 996.353 171.349C996.709 167.141 997 161.546 997 158.917C997 155.121 997.386 154.012 998.874 153.54C1001.19 152.806 1001.97 148.569 1001.99 136.75C1002 128.875 1002.19 128 1003.87 128C1006.22 128 1006.97 123.957 1006.99 111.25C1007 102.053 1007.01 102 1009.5 102H1012V89.519C1012 77.04 1012 77.038 1014.5 76.411C1016.96 75.794 1017 75.609 1017 65.892C1017 59.964 1017.4 56 1018 56C1018.55 56 1019 55.086 1019 53.969C1019 52.851 1019.68 51.678 1020.5 51.362C1021.72 50.893 1022 48.489 1022 38.412C1022 26.047 1022 26.038 1024.5 25.411C1026.74 24.848 1027 24.275 1027 19.892C1027 17.201 1026.55 15 1026 15C1025.45 15 1025 14.148 1025 13.107C1025 12.066 1024.32 10.955 1023.5 10.638C1022.68 10.322 1022 8.924 1022 7.531C1022 5.16 1021.68 5 1017 5C1012.33 5 1012 4.833 1012 2.5V0H979H946V2.5C946 4.814 945.646 5.001 941.25 5.014C934.659 5.033 932 5.905 932 8.049C932 9.048 931.1 10.151 930 10.5C928.9 10.849 928 12.004 928 13.067C928 14.13 927.325 15 926.5 15C925.262 15 925 16.833 925 25.5C925 34.167 924.738 36 923.5 36C922.567 36 922 36.944 922 38.5C922 39.875 921.55 41 921 41C920.393 41 919.996 45.424 919.989 52.25C919.975 66.331 919.282 70.776 916.984 71.505C915.431 71.998 915.176 73.784 914.848 86.495C914.597 96.178 914.067 101.333 913.237 102.163C912.557 102.843 912 104.21 912 105.2C912 106.19 911.595 107 911.099 107C910.603 107 910.041 114.95 909.849 124.667C909.592 137.656 909.169 142.444 908.25 142.75C907.563 142.979 907 144.254 907 145.583C907 146.912 906.62 148 906.156 148C905.692 148 905.015 154.862 904.653 163.25C904.279 171.88 903.56 178.645 902.996 178.833C902.448 179.017 902 180.254 902 181.583C902 182.912 901.55 184 901 184C900.45 184 899.997 186.137 899.994 188.75C899.991 191.363 899.699 197.212 899.346 201.75L898.704 210L895.602 209.985C889.99 209.957 889.653 209.227 889.184 196.072C888.804 185.417 888.549 184 887.008 184C884.817 184 884.026 179.713 884.011 167.769C884 159.294 883.927 159.02 881.5 158.411C879.002 157.784 879 157.775 879 145.392C879 135.044 878.753 133 877.5 133C876.567 133 876 132.056 876 130.5C876 129.125 875.55 128 875 128C874.389 128 874 123.375 874 116.125C874 101.85 873.341 97.902 870.848 97.25C869.152 96.806 869 95.505 869 81.383C869 71.794 868.623 66 868 66C867.45 66 867 65.122 867 64.05C867 62.977 866.385 61.74 865.633 61.3C864.639 60.718 864.13 57.102 863.767 48.045C863.448 40.053 862.863 35.454 862.135 35.212C861.511 35.004 861 33.971 861 32.917C861 31.862 860.55 31 860 31C859.433 31 858.995 28.076 858.989 24.25C858.973 14.145 858.085 10 855.939 10C854.834 10 854.016 9.131 853.82 7.75C853.526 5.685 852.903 5.476 846.25 5.206C839.298 4.924 839 4.812 839 2.456V0H815.5H792V2.5C792 4.772 791.613 5.001 787.75 5.014C781.574 5.033 779 5.946 779 8.117C779 9.152 778.55 10 778 10C777.45 10 777 11.076 777 12.392C777 14.109 776.295 14.96 774.5 15.411C772.069 16.021 772 16.282 772 24.894C772 35.9 771.257 39.784 769.015 40.495C767.509 40.973 767.201 42.8 766.78 53.726C766.462 61.968 765.891 66.536 765.146 66.785C764.516 66.995 764 68.254 764 69.583C764 70.912 763.618 72 763.15 72C762.683 72 761.99 77.512 761.612 84.25C761.233 90.988 760.49 96.65 759.962 96.833C759.433 97.017 759 98.254 759 99.583C759 100.912 758.601 102 758.113 102C757.625 102 756.9 108.736 756.502 116.968C755.873 129.939 755.544 132.01 754.033 132.489C752.658 132.926 752.154 134.653 751.645 140.672C751.29 144.868 751 150.454 751 153.083C751 156.879 750.614 157.988 749.126 158.46C746.705 159.228 746.025 163.441 746.011 177.75C746.004 184.576 745.607 189 745 189C744.45 189 744 190.125 744 191.5C744 193.056 743.433 194 742.5 194C741.247 194 741 196.056 741 206.5C741 214.167 740.613 219 740 219C739.45 219 739 218.1 739 217C739 215.889 738.333 215 737.5 215C736.292 215 736 213.444 736 207C736 199.133 735.958 199 733.5 199H731V184.019V169.038L728.5 168.411L726 167.783L725.989 151.642C725.976 132.422 725.442 128.275 722.874 127.46C721.21 126.932 721 125.767 721 117.083C721 111.704 720.709 103.859 720.353 99.651C719.822 93.37 719.402 92 718.006 92C716.498 92 716.226 90.048 715.607 74.78C714.941 58.383 714.638 56.862 711.814 55.766C711.437 55.62 710.809 47.747 710.418 38.271C709.797 23.204 709.491 20.973 707.98 20.494C706.164 19.917 705.031 15.434 705.011 8.75L705 5H697.5C690.167 5 690 4.944 690 2.5V0H655.5H621V2.5ZM158 94.5C158 96.864 158.3 97 163.5 97H169V102C169 106.667 169.167 107 171.5 107H174V122.5V138H171.594C169.465 138 169.108 138.576 168.5 143C167.892 147.424 167.535 148 165.406 148C163.543 148 163 148.534 163 150.363C163 152.559 162.525 152.764 156.295 153.264C152.608 153.56 138.883 153.554 125.795 153.25L102 152.697V150.348C102 148.51 101.457 148 99.5 148H97V122.5V97H99.5C101.5 97 102 96.5 102 94.5V92H130H158V94.5ZM112 232.5V235H140.5H169V237.5C169 239.5 169.5 240 171.5 240C173.833 240 174 240.333 174 245C174 249.667 174.167 250 176.5 250C178.864 250 179 250.3 179 255.5C179 260.7 178.864 261 176.5 261C174.167 261 174 261.333 174 266V271H169C164.333 271 164 271.167 164 273.5C164 275.833 163.667 276 159 276C154.333 276 154 276.167 154 278.5V281H143.5H133V278.5V276H115.631H98.262L97.642 272.25C97.301 270.188 97.017 266.587 97.011 264.25C97.002 260.765 96.662 260 95.125 260C93.825 260 93.058 259.042 92.625 256.875C91.485 251.173 91.804 250 94.5 250C96.944 250 97 249.833 97 242.5C97 235.167 97.056 235 99.5 235C101.5 235 102 234.5 102 232.5C102 230.167 102.333 230 107 230C111.667 230 112 230.167 112 232.5ZM334.75 291.716C332.842 292.005 332 292.725 332 294.066C332 295.462 331.305 296 329.5 296C327.389 296 327 296.467 327 299C327 301.533 326.611 302 324.5 302H322V322V342H324.5C326.864 342 327 342.3 327 347.5V353H334.5C341.23 353 342 353.197 342 354.92C342 357.834 350.372 358.343 386.838 357.649C404.252 357.318 419.962 357.036 421.75 357.023C424.326 357.005 425 356.585 425 355C425 353.667 425.667 353 427 353C428.295 353 429 353.667 429 354.891C429 357.307 431.746 357.639 447.75 357.158C458.977 356.82 460 356.631 460 354.895C460 353.334 460.749 352.998 464.25 352.989C472.041 352.969 476 351.918 476 349.869C476 348.479 476.733 348 478.86 348C485.917 348 491 346.742 491 344.995C491 342.699 495.349 342.025 510.25 342.011C521.024 342.001 522 341.846 522 340.145C522 338.584 523.071 338.188 528.75 337.652C532.462 337.301 541.42 337.011 548.656 337.007L561.812 337L562.5 332C563.052 327.989 563.565 327 565.094 327C566.715 327 567 326.251 567 322C567 317.724 566.72 317 565.066 317C563.7 317 563.04 316.193 562.816 314.25C562.568 312.09 561.91 311.432 559.75 311.184C557.807 310.96 557 310.3 557 308.934C557 307.538 556.305 307 554.5 307C552.667 307 552 307.533 552 309C552 310.867 551.333 311 542 311C532.667 311 532 310.867 532 309C532 307.114 531.33 306.999 520.25 306.989C505.05 306.975 501 306.318 501 303.869C501 302.229 500.172 301.999 494.25 301.989C484.192 301.973 480 301.083 480 298.963C480 297.591 478.864 297.031 475 296.5C471.155 295.971 470 295.406 470 294.053C470 292.583 468.74 292.187 462.349 291.647C454.168 290.955 339.361 291.018 334.75 291.716Z" fill="black"/>
</svg>
